<?xml version="1.0" encoding="utf-8"?>
<svg xmlns="http://www.w3.org/2000/svg" width="300px" height="171px"><path fill="#481149" d="M50.81,36.21c27.51,0,49.82,22.28,49.82,49.81v47.69H72.02V86c0-11.75-9.49-21.27-21.23-21.27c-11.73,0-21.26,9.52-21.26,21.27c0,11.73,9.54,21.22,21.26,21.22h21.23l-26.46,28.31C20.51,132.9,1,111.74,1,86.01C1,58.49,23.31,36.21,50.81,36.21 M113.9,0.69h29.8v132.96h-29.8V0.69z M158.24,0.69h29.77v132.96h-29.77V0.69z M299,37.56l-49.89,132.76h-31.05l15.24-37.11l-36.68-95.64h31.22l20.31,59.37l19.54-59.37C267.7,37.56,299,37.56,299,37.56z"/></svg>