<svg version="1.1" xmlns="http://www.w3.org/2000/svg" xmlns:xlink="http://www.w3.org/1999/xlink" x="0px" y="0px" viewBox="0 0 577.8 192.9" style="enable-background:new 0 0 577.8 192.9;" xml:space="preserve">
		<g>
			<polygon class="st0" fill="#3f2c4f" points="364.3,76.6 364.3,67.7 337.1,67.7 337.1,140.7 337.1,149.5 346.4,149.5 364.3,149.5 364.3,140.7
	  346.4,140.7 346.4,103.9 364.3,103.9 364.3,95 346.4,95 346.4,76.6    " />
			<path class="st0" fill="#3f2c4f" d="M265,72.4c-4.2-5.3-11.4-5.4-11.7-5.4h-0.3c-1.1,0-4.6,0.2-8.4,2.3c-6.3,3.6-6.7,12.5-6.7,12.9v67.6h9.1v-45.6
	  h11.8v45.6h9V82C267.8,75.9,266.5,74.3,265,72.4 M258.8,95.3h-11.9l0.1-15.4c0-0.1,0.4-3.8,5.9-3.8c5.3,0,6,3.6,6,3.8L258.8,95.3z" />
			<polygon class="st0" fill="#3f2c4f" points="380,149.8 380,68 407.2,68 407.2,76.8 389.3,76.8 389.3,95.3 407.2,95.3 407.2,104.2 389.3,104.2
	  389.3,149.8 " />
			<path class="st0" fill="#3f2c4f" d="M499.2,67.2c-7.3,0-14.5,1.9-20.8,5.6c-6.3-3.7-13.5-5.6-20.8-5.6c-23,0-41.6,18.7-41.6,41.6
	  c0,20.4,14.8,37.5,34.2,41c2.4,0.4,4.9,0.7,7.4,0.7c2.5,0,4.9-0.2,7.3-0.7c4.7-0.8,9.3-2.5,13.5-4.9c4.2,2.4,8.8,4.1,13.5,4.9
	  c2.4,0.4,4.9,0.7,7.3,0.7c2.5,0,5-0.2,7.4-0.7c19.4-3.5,34.2-20.6,34.2-41C540.8,85.8,522.2,67.2,499.2,67.2 M457.5,141.8
	  c-18.2,0-33-14.8-33-33c0-18.2,14.8-33,33-33c4.6,0,9,0.9,13.1,2.7c-8.4,7.9-13.1,18.8-13.1,30.3c0,11.5,4.7,22.5,13.1,30.3
	  C466.5,140.9,462.1,141.8,457.5,141.8 M478.4,134.4c-7.8-6.3-12.2-15.6-12.2-25.6c0-10,4.4-19.3,12.2-25.6
	  c7.8,6.3,12.2,15.6,12.2,25.6C490.6,118.8,486.2,128.1,478.4,134.4 M499.2,141.8c-4.5,0-9-0.9-13-2.7c8.3-7.9,13.1-18.8,13.1-30.3
	  c0-11.5-4.7-22.4-13.1-30.3c4.1-1.8,8.6-2.7,13-2.7c18.2,0,33,14.8,33,33C532.2,127,517.4,141.8,499.2,141.8" />
			<polygon class="st0" fill="#3f2c4f" points="555.8,149.8 555.8,77.2 543.8,77.2 543.8,68 577.8,68 577.8,77 565.3,77 565.3,149.8  " />
			<path class="st0" fill="#3f2c4f" d="M315.9,149.8h9.3l-18.7-46.6c7-2.5,12.1-9.2,12.1-17c0-10-8.1-18.1-18.1-18.1h-14.7v81.7h9.3v-45.6l2.4,0
	  L315.9,149.8z M294.8,77h5.6c5,0,9.1,4.1,9.1,9.1s-4.1,9.1-9.1,9.1l-5.6,0V77z" />
			<path class="st0" fill="#3f2c4f" d="M209.5,97.6c2.6-3.1,4.1-7.1,4.1-11.5c0-10-8.1-18.1-18.1-18.1h-14.7v81.7l17.6,0c15,0,27.2-12.2,27.2-27.2
	  C225.6,111.4,219,101.9,209.5,97.6 M189.9,77h5.6c5,0,9.1,4.1,9.1,9.1c0,5-4.1,9.1-9.1,9.1h-5.7V77z M198.4,140.8h-9.8v-36.6l6.9,0
	  c0.1,0,0.1,0,0.2,0h2.7c10.1,0,18.3,8.2,18.3,18.3C216.7,132.6,208.5,140.8,198.4,140.8" />
			<g>
				<g>
					<path class="st0" fill="#3f2c4f" d="M127.3,88.5c3.2,0,5.4,3.9,5.4,6.1c0,3.7-3.2,6.5-6.1,6.5c-4.6,0-5.2-2.3-5.2-5
			  C121.4,93.5,122.5,88.6,127.3,88.5" />
					<path class="st0" fill="#3f2c4f" d="M62.9,28h3.7c5.9,0,11.2,10.3,15,12.7c7.4,4.6,16.8,7.1,20.2,16.4c2.7,7.6,4.2,16.2,7.4,23.5
			  c3.4,7.7,8.9,13,8.9,19.5c0,12.1-8.4,19.2-21.2,26.2c-27.5,15.3-51.5,66.6-80.5,66.6C5,192.9,0,182.9,0,175.3
			  c0-18.2,27.2-30.1,38.9-34.2c3-1,6.2-2.4,7.2-3.3c3.7-3,4.7-7.3,6.3-10.3c1.1-2,0.1-5.3,1.2-7.2c1.4-2.3,4.6-2.8,4.6-5.3
			  c0-1.1-2.4-6.1-2.4-7.2c0-4.3,4.7-0.5,4.7-6.8c0-9.4-14.7-22.3-16.1-38.3c-0.4-4.4-0.8-7,0-11.4C46.7,40.1,56,28,62.9,28" />
					<path class="st0" fill="#3f2c4f" d="M109.5,33c6.7,0,10,2.8,10,8.1c0,6.4-5.5,11.3-10.9,11.3c-4.5,0-11.4-8.9-11.4-11.7
			  C97.2,35.5,106.1,33,109.5,33" />
					<path class="st0" fill="#3f2c4f" d="M90.1,0c7.3,0,19,6.6,19,14c0,9.5-14.8,17.6-21.1,17.6c-7.9,0-16.8-6.3-16.8-14.4C71.1,7.8,81.1,0,90.1,0" />
					<path class="st0" fill="#3f2c4f" d="M119.9,51.9c6.6,0,10,8.4,10,12c0,3.8-3.3,4.3-6.2,4.3c-8.5,0-11.4-2.9-11.4-10.2
			  C112.3,54.2,116.5,51.9,119.9,51.9" />
					<path class="st0" fill="#3f2c4f" d="M128.2,70c6.3,0,5.9,6.9,5.9,9c0,1-0.6,4.9-3,6.3c-2.2,1.2-4.2,1.1-6.4,0c-3-1.4-3.9-4.6-3.9-7.2
			  C120.9,73.9,122.8,70,128.2,70" />
				</g>
				<path class="st0" fill="#3f2c4f" d="M37.4,187.6c1.2,0,2.1,0.9,2.1,2.1c0,1.2-0.9,2.1-2.1,2.1c-1.1,0-2.1-0.9-2.1-2.1
		  C35.3,188.5,36.2,187.6,37.4,187.6L37.4,187.6z M37.4,187.9c-0.9,0-1.7,0.8-1.7,1.8c0,1,0.8,1.8,1.7,1.8c0.9,0,1.7-0.8,1.7-1.8
		  C39.1,188.7,38.3,187.9,37.4,187.9L37.4,187.9z M37,190.9h-0.4v-2.3c0.2,0,0.4-0.1,0.7-0.1c0.4,0,0.6,0.1,0.7,0.2
		  c0.1,0.1,0.2,0.3,0.2,0.5c0,0.3-0.2,0.5-0.5,0.6l0,0c0.2,0,0.3,0.2,0.4,0.6c0.1,0.4,0.1,0.5,0.1,0.6h-0.4
		  c-0.1-0.1-0.1-0.3-0.2-0.6c-0.1-0.3-0.2-0.4-0.5-0.4H37V190.9z M37,189.6h0.3c0.3,0,0.6-0.1,0.6-0.4c0-0.2-0.1-0.4-0.6-0.4
		  c-0.1,0-0.2,0-0.3,0V189.6z" />
			</g>
			<path class="st0" fill="#3f2c4f" d="M569.5,146.9c1.2,0,2.1,0.9,2.1,2.1c0,1.2-0.9,2.1-2.1,2.1c-1.2,0-2.1-0.9-2.1-2.1
	  C567.4,147.9,568.3,146.9,569.5,146.9L569.5,146.9z M569.5,147.2c-0.9,0-1.7,0.8-1.7,1.8c0,1,0.8,1.8,1.7,1.8
	  c0.9,0,1.7-0.8,1.7-1.8C571.2,148,570.4,147.2,569.5,147.2L569.5,147.2z M569.1,150.2h-0.4v-2.3c0.2,0,0.4-0.1,0.7-0.1
	  c0.4,0,0.6,0.1,0.7,0.2c0.1,0.1,0.2,0.3,0.2,0.5c0,0.3-0.2,0.5-0.5,0.6l0,0c0.2,0,0.3,0.2,0.4,0.6c0.1,0.4,0.1,0.5,0.1,0.6H570
	  c-0.1-0.1-0.1-0.3-0.2-0.6c-0.1-0.3-0.2-0.4-0.5-0.4h-0.3V150.2z M569.1,148.9h0.3c0.3,0,0.6-0.1,0.6-0.4c0-0.2-0.1-0.4-0.6-0.4
	  c-0.1,0-0.2,0-0.3,0V148.9z" />
		</g>
	</svg>