<svg id="Layer_1" data-name="Layer 1" xmlns="http://www.w3.org/2000/svg" xmlns:xlink="http://www.w3.org/1999/xlink" viewBox="0 0 392.4 110.16"><defs><style>.cls-1{fill:none;}.cls-2{clip-path:url(#clip-path);}.cls-3{clip-path:url(#clip-path-2);}.cls-4{fill:#fff;}</style><clipPath id="clip-path"><rect class="cls-1" width="361" height="109"/></clipPath><clipPath id="clip-path-2"><rect class="cls-1" y="0.71" width="400.05" height="108.23"/></clipPath></defs><title>bgsu-logo-rev</title><g class="cls-2"><g class="cls-3"><path class="cls-4" d="M28.8,44.2l14.69-.14c7.77,0,12.81-3,12.81-11,0-5.9-5-10.08-11.8-10.08H28.8V44.2M45.65,86.68c7.2,0,12.52-4.32,12.52-10.8,0-5.76-4-11.23-10.51-11.66H28.8V86.68ZM0,106.84V2.87H49.82c19.59.15,36,8.93,36,27.22,0,12.81-10.8,20.59-22.46,22.75v.29c13.82,1.87,25,10.66,25,25.49,0,30.24-38.59,28.22-39.6,28.22Z"/><path class="cls-4" d="M165.61,68H144.45V47.8h50v55.58c-23.32,3.46-27.79,5.62-52.84,5.62-32.4-1-52.13-21.6-52.13-54.14S109.17,1.72,141.57.71c25.2-.72,51.69,3,52.12,33.27h-28.8C163.45,23.9,155.53,20.87,146,20.87c-19.44,0-26.35,17.14-26.35,34,0,20.44,10.22,34,31,34a77.35,77.35,0,0,0,15-1.73V68"/><path class="cls-4" d="M232.85,109c-16.56,0-30.52-12.1-31-29.23H212c.29,16,12.1,20.59,26.07,20.59,11.66,0,25-6.77,25-20,0-10.36-7.48-15.26-16.27-18.14C230,56.58,204.34,51.26,204.34,28.79c0-18.14,16.71-28.08,33.12-28.08C251.14.71,269,5.47,271.3,25.48H261.22c-.29-12.81-12-16.13-22.61-16.13s-24.19,5.48-24.19,18.15c0,29.52,58.75,16.12,58.75,52,0,22.61-19.44,29.52-40.32,29.52"/><path class="cls-4" d="M293.38,2.87V70.12C294.1,89,304.9,100.36,322,100.36S350,89,350.69,70.12V2.87h9.36V70.26C359.77,92.58,347.24,109,322,109s-37.73-16.42-38-38.74V2.87h9.36"/></g></g><path class="cls-4" d="M384.25,93.71a8.41,8.41,0,0,1,0,11.84,8.31,8.31,0,0,1-11.81,0,8.41,8.41,0,0,1,0-11.85,8.21,8.21,0,0,1,11.86,0Zm1.25-1.29a9.73,9.73,0,0,0-7.16-3,9.93,9.93,0,0,0-7,2.75,9.65,9.65,0,0,0-3.17,7.38,10.13,10.13,0,1,0,17.29-7.16Zm-5.91,6.39a2.76,2.76,0,0,1-1.61.41h-1.13V96h.71a4.76,4.76,0,0,1,1.7.24,1.28,1.28,0,0,1,.91,1.28A1.51,1.51,0,0,1,379.59,98.81Zm-2.74,2.43h.61l.65.05a3.13,3.13,0,0,1,1,.17,1.39,1.39,0,0,1,.83.83,5.18,5.18,0,0,1,.18,1.37,6.77,6.77,0,0,0,.18,1.55h2.8l-.1-.31a1.94,1.94,0,0,1-.07-.33,1.83,1.83,0,0,1,0-.33v-1a3,3,0,0,0-1-2.52,3.8,3.8,0,0,0-1.6-.64,3.77,3.77,0,0,0,1.95-.76,2.5,2.5,0,0,0,.79-2,2.83,2.83,0,0,0-1.5-2.68,5.55,5.55,0,0,0-2.21-.58L377,94H373.9v11.22h3Z"/></svg>