<svg xmlns="http://www.w3.org/2000/svg" viewBox="0 0 800 258.09"><defs><style>.cls-1{fill:#fff;}</style></defs><g id="Layer_2" data-name="Layer 2"><g id="Layer_1-2" data-name="Layer 1"><path class="cls-1" d="M491.68,155.1a47.65,47.65,0,1,1,47.65,47.64A47.68,47.68,0,0,1,491.68,155.1Zm18.8,0a28.86,28.86,0,1,0,28.85-28.86A29,29,0,0,0,510.48,155.1Z"/><path class="cls-1" d="M674.89,116.75V69.48a9.4,9.4,0,0,1,18.79,0v85.24a47.54,47.54,0,1,1-18.79-38Zm0,38v-.19a28.95,28.95,0,1,0,0,.19Z"/><path class="cls-1" d="M800,155.1a9.36,9.36,0,0,1-9.49,9.3H725A28.92,28.92,0,0,0,752.35,184a37.28,37.28,0,0,0,21.26-6.26c4.37-2.85,10.25-.19,12.53,4.36,2.28,4.75-.19,9.68-4.56,12.53-12.52,8.36-22.21,8.16-29.23,8.16a47.65,47.65,0,1,1,0-95.29C775.32,107.45,800,124.15,800,155.1Zm-75-9.5h54.85c-4-13.28-16.13-19.36-27.52-19.36A29,29,0,0,0,725,145.6Z"/><path class="cls-1" d="M477.81,168a9.69,9.69,0,0,0-13.1,2.84,28.66,28.66,0,0,1-24.29,13.29,28.86,28.86,0,1,1,0-57.71,28.77,28.77,0,0,1,25.05,14.43,9.72,9.72,0,0,0,12.91,3.42,9.53,9.53,0,0,0,3.42-12.91,48,48,0,0,0-41.38-23.73,47.25,47.25,0,0,0-21.15,5L393,155.88a47.51,47.51,0,0,0,87.48,25.23A9.45,9.45,0,0,0,477.81,168Z"/><path class="cls-1" d="M95.29,94.54A47.65,47.65,0,0,1,0,94.54V9.3A9.36,9.36,0,0,1,9.49,0a9.31,9.31,0,0,1,9.3,9.3V56.57a47.7,47.7,0,0,1,76.5,38Zm-18.79,0a28.86,28.86,0,0,0-57.71-.19v.19a28.86,28.86,0,0,0,57.71,0Z"/><path class="cls-1" d="M106.32,94.92A47.65,47.65,0,1,1,154,142.56,47.68,47.68,0,0,1,106.32,94.92Zm18.79,0A28.86,28.86,0,1,0,154,66.06,29,29,0,0,0,125.11,94.92Z"/><path class="cls-1" d="M212.83,95.11a47.64,47.64,0,0,1,88.84-23.92,9.55,9.55,0,0,1-3.42,12.91,9.72,9.72,0,0,1-12.91-3.42,28.9,28.9,0,0,0-53.91,14.43A29.08,29.08,0,0,0,260.28,124a28.66,28.66,0,0,0,24.3-13.29,9.69,9.69,0,0,1,13.1-2.84,9.46,9.46,0,0,1,2.66,13.1,47.53,47.53,0,0,1-87.51-25.82Z"/><path class="cls-1" d="M382.61,136.54l23.71-39c.06-1.07.15-2.12.15-3.21V57.15a9.18,9.18,0,0,0-9.49-9.5c-3.8,0-9.11,4-9.11,9.5-8.17-6.84-17.28-9.5-28.1-9.5-26.77,0-48,19.93-48,46.7a47.72,47.72,0,0,0,48,48A46.59,46.59,0,0,0,382.61,136.54ZM330.35,94.35c0-15.95,13.47-28.1,29.42-28.1s28.1,12.15,28.1,28.1-12.15,29.42-28.1,29.42A29.81,29.81,0,0,1,330.35,94.35Z"/></g></g></svg>