<?xml version="1.0" encoding="UTF-8"?><svg id="uuid-93eadf5a-e7ff-415f-a267-84707210d2e6" xmlns="http://www.w3.org/2000/svg" width="143.38" height="38.66" viewBox="0 0 143.38 38.66"><g><path d="m56.24,8.5c0-4.8,3.65-8.5,8.43-8.5,2.33,0,4.21.87,5.67,2.26.16.16.19.33.02.52l-1.2,1.29c-.14.16-.31.16-.49.02-1.08-.94-2.38-1.51-3.98-1.51-3.3,0-5.79,2.49-5.79,5.91s2.49,5.88,5.79,5.88c1.6,0,2.89-.56,3.98-1.51.19-.16.35-.14.49,0l1.2,1.32c.19.16.14.33-.02.49-1.46,1.41-3.34,2.28-5.67,2.28-4.78,0-8.43-3.67-8.43-8.47Z" style="fill:#1c1c1c;"/><path d="m77.14,16.31v-7.41l-4.85-8.28c-.14-.26-.07-.42.21-.42h2.07c.19,0,.33.07.42.24l3.46,6.05,3.46-6.05c.09-.16.21-.24.4-.24h2.07c.28,0,.38.16.24.42l-4.85,8.31v7.39c0,.21-.14.35-.35.35h-1.95c-.21,0-.33-.14-.33-.35Z" style="fill:#1c1c1c;"/><path d="m87.48,16.31V.54c0-.21.12-.35.33-.35h4.75c3.74,0,5.62,2.17,5.62,5.25s-1.88,5.25-5.62,5.25h-2.45v5.63c0,.21-.14.35-.35.35h-1.95c-.21,0-.33-.14-.33-.35Zm4.97-7.98c1.74,0,3.2-.68,3.2-2.89s-1.46-2.89-3.2-2.89h-2.33v5.79h2.33Z" style="fill:#1c1c1c;"/><path d="m101.11,16.31V.54c0-.21.12-.35.33-.35h1.95c.21,0,.35.14.35.35v6.83h6.83V.54c0-.21.14-.35.35-.35h1.95c.21,0,.33.14.33.35v15.77c0,.21-.12.35-.33.35h-1.95c-.21,0-.35-.14-.35-.35v-6.61h-6.83v6.61c0,.21-.14.35-.35.35h-1.95c-.21,0-.33-.14-.33-.35Z" style="fill:#1c1c1c;"/><path d="m116.83,16.31V.54c0-.21.12-.35.33-.35h8.17c.21,0,.33.14.33.35v1.65c0,.21-.12.35-.33.35h-5.86v4.52h5.53c.21,0,.35.14.35.35v1.67c0,.21-.14.33-.35.33h-5.53v4.9h5.86c.21,0,.35.14.35.35v1.65c0,.21-.14.35-.35.35h-8.17c-.21,0-.33-.14-.33-.35Z" style="fill:#1c1c1c;"/><path d="m137.26,16.43l-3.7-5.74h-1.86v5.63c0,.21-.14.35-.35.35h-1.95c-.21,0-.33-.14-.33-.35V.54c0-.21.12-.35.33-.35h4.75c3.74,0,5.62,2.17,5.62,5.25,0,2.47-1.2,4.33-3.6,4.99l3.81,5.81c.16.26.05.42-.24.42h-2.07c-.19,0-.33-.07-.42-.24Zm-3.22-8.1c1.74,0,3.2-.68,3.2-2.89s-1.46-2.89-3.2-2.89h-2.33v5.79h2.33Z" style="fill:#1c1c1c;"/><path d="m66.09,34.75v-11.92c0-.16.09-.27.25-.27h1.48c.16,0,.27.11.27.27v10.4h4.13c.16,0,.27.11.27.27v1.24c0,.16-.11.27-.27.27h-5.87c-.16,0-.25-.11-.25-.27Z" style="fill:#1c1c1c;"/><path d="m74.31,30.62c0-2.56,1.78-4.54,4.43-4.54s4.13,1.97,4.13,4.14c0,.76-.16,1.14-.82,1.14h-5.87c.23,1.39,1.26,2.31,2.99,2.31.85,0,1.55-.21,2.24-.68.11-.07.21-.05.28.05l.5.68c.11.14.07.25-.07.39-.76.75-1.89,1.1-3.11,1.1-2.85,0-4.7-2.01-4.7-4.61Zm6.85-.64c-.11-1.42-1.05-2.28-2.42-2.28s-2.38.84-2.58,2.28h5Z" style="fill:#1c1c1c;"/><path d="m85.07,30.66c0-2.58,1.71-4.57,4.2-4.57,1.44,0,2.47.64,3.08,1.65l.04-1.17c0-.16.09-.27.25-.27h1.3c.16,0,.25.11.25.27v8.18c0,.16-.09.27-.25.27h-1.3c-.16,0-.25-.11-.25-.27l-.04-1.16c-.62,1.01-1.65,1.64-3.08,1.64-2.49,0-4.2-1.97-4.2-4.57Zm4.57,2.81c1.55,0,2.63-1.12,2.63-2.79s-1.08-2.83-2.63-2.83-2.7,1.14-2.7,2.81,1.14,2.81,2.7,2.81Z" style="fill:#1c1c1c;"/><path d="m97.27,34.75v-8.18c0-.16.09-.27.25-.27h1.35c.16,0,.25.07.25.28l.05,1.05c.32-.87.89-1.55,1.94-1.55.39,0,.66.09.8.2.12.09.16.18.16.34v1.14c0,.2-.12.25-.34.2-.21-.07-.41-.09-.64-.09-1.37,0-1.9,1.07-1.9,2.19v4.7c0,.16-.09.27-.25.27h-1.42c-.16,0-.25-.11-.25-.27Z" style="fill:#1c1c1c;"/><path d="m104.6,34.75v-8.18c0-.16.09-.27.25-.27h1.35c.16,0,.25.07.25.28l.07,1.07c.5-.89,1.37-1.57,2.74-1.57,1.85,0,3.17,1.28,3.17,3.57v5.09c0,.16-.11.27-.27.27h-1.4c-.16,0-.25-.11-.25-.27v-4.73c0-1.37-.68-2.15-1.9-2.15s-2.08.78-2.08,2.15v4.73c0,.16-.09.27-.25.27h-1.42c-.16,0-.25-.11-.25-.27Z" style="fill:#1c1c1c;"/><path d="m115.36,23.31c0-.6.48-1.1,1.12-1.1s1.1.5,1.1,1.1-.48,1.12-1.1,1.12-1.12-.5-1.12-1.12Zm.14,3.25c0-.16.09-.27.25-.27h1.44c.16,0,.25.11.25.27v8.18c0,.16-.09.27-.25.27h-1.44c-.16,0-.25-.11-.25-.27v-8.18Z" style="fill:#1c1c1c;"/><path d="m120.53,34.75v-8.18c0-.16.09-.27.25-.27h1.35c.16,0,.25.07.25.28l.07,1.07c.5-.89,1.37-1.57,2.74-1.57,1.85,0,3.17,1.28,3.17,3.57v5.09c0,.16-.11.27-.27.27h-1.4c-.16,0-.25-.11-.25-.27v-4.73c0-1.37-.68-2.15-1.9-2.15s-2.08.78-2.08,2.15v4.73c0,.16-.09.27-.25.27h-1.42c-.16,0-.25-.11-.25-.27Z" style="fill:#1c1c1c;"/><path d="m132.2,37.74c-.16-.11-.2-.28-.12-.44l.41-.76c.09-.14.23-.2.39-.11.75.44,1.58.66,2.4.66,1.44,0,2.85-.64,2.85-2.53v-1.17c-.59.92-1.58,1.49-2.97,1.49-2.47,0-4.16-1.81-4.16-4.39s1.69-4.39,4.14-4.39c1.42,0,2.42.57,3.01,1.53l.04-1.05c0-.16.09-.27.25-.27h1.3c.16,0,.25.11.25.27v8.04c0,2.99-2.33,4.06-4.54,4.06-1.28,0-2.45-.36-3.24-.92Zm3.29-4.61c1.51,0,2.58-1.01,2.58-2.63s-1.07-2.67-2.58-2.67-2.63,1.03-2.63,2.65,1.14,2.65,2.63,2.65Z" style="fill:#1c1c1c;"/></g><g><path d="m47.35.56l-14.64,25.11c-.7,1.21-1.53,2.32-2.48,3.32-2.94,3.17-6.92,5.23-11.26,5.78h0c-.64.09-1.3.13-1.96.15-.08,0-.16,0-.25,0-.43-.01-.85-.04-1.27-.08-.62-.06-1.23-.15-1.84-.28-.12-.03-.24-.05-.36-.08-.81-.19-1.59-.43-2.35-.73-.12-.05-.23-.09-.35-.14C5.03,31.3.95,26.15.14,19.97c0-.04-.01-.09-.01-.13C-1.05,10.35,5.95,1.56,15.46.64c4.69-.46,9.03.97,12.38,3.61l-4.69,8.04c-1.48-1.62-3.6-2.64-5.96-2.64-4.47,0-8.08,3.63-8.08,8.09,0,.77.11,1.52.31,2.23.58,2.02,1.92,3.71,3.69,4.75.23.14.47.26.71.37,1.03.48,2.18.75,3.39.75.08,0,.16,0,.23,0,2.82-.08,5.28-1.6,6.66-3.85l.22-.38,7.52-12.9,2.44-4.18c1.44-2.46,4.07-3.97,6.92-3.97h6.15Z" style="fill:#22d3a5;"/><polygon points="54.29 25.84 48.99 34.92 33.88 34.92 39.17 25.84 54.29 25.84" style="fill:#22d3a5;"/></g><path d="m142.68,21.18c.22.13.39.3.51.53.12.22.18.47.18.75s-.06.53-.18.75-.29.4-.51.53c-.22.13-.46.19-.74.19s-.52-.06-.74-.19c-.22-.13-.39-.3-.51-.53s-.18-.48-.18-.75.06-.52.18-.75c.12-.22.29-.4.51-.53.22-.13.46-.19.74-.19s.52.06.74.19Zm-.1,2.38c.19-.11.33-.26.44-.46.1-.2.15-.41.15-.65s-.05-.46-.15-.65-.25-.34-.44-.45c-.19-.11-.4-.17-.64-.17-.37,0-.66.12-.89.36-.23.24-.34.54-.34.91,0,.24.05.46.15.65.1.2.25.35.43.46.18.11.4.17.64.17s.45-.06.64-.17Zm-.12-1.13c-.08.08-.19.13-.32.15l.48.67h-.28s-.47-.67-.47-.67h-.23v.68h-.24v-1.61h.66c.16,0,.29.04.38.12.09.08.14.2.14.35,0,.13-.04.24-.12.32Zm-.82-.06h.4c.2,0,.31-.09.31-.26,0-.09-.03-.15-.08-.19-.06-.04-.13-.06-.23-.06h-.4v.52Z" style="fill:#1c1c1c;"/></svg>