<svg version="1.1" id="Layer_1" xmlns="http://www.w3.org/2000/svg" xmlns:xlink="http://www.w3.org/1999/xlink" x="0px" y="0px"
	 width="100%" viewBox="0 0 370 370" enable-background="new 0 0 370 370" xml:space="preserve">
<path fill="#00000" opacity="0" stroke="none" 
	d="
M207.000000,371.000000 
	C138.023132,371.000000 69.546272,371.000000 1.034707,371.000000 
	C1.034707,247.731476 1.034707,124.462929 1.034707,1.097196 
	C124.226807,1.097196 247.453720,1.097196 370.840332,1.097196 
	C370.840332,124.333168 370.840332,247.666565 370.840332,371.000000 
	C316.463013,371.000000 261.981506,371.000000 207.000000,371.000000 
M250.538437,354.054535 
	C331.682007,322.287537 377.949341,240.203018 363.140442,154.283401 
	C346.595367,58.290646 253.916031,-7.516092 157.406219,8.202295 
	C58.105385,24.375250 -8.714887,118.407463 8.795333,217.333588 
	C28.464443,328.456604 144.611725,394.466095 250.538437,354.054535 
z"/>
<path fill="#FFFFFF" opacity="1.000000" stroke="none" 
	d="
M250.170105,354.179138 
	C144.611725,394.466095 28.464443,328.456604 8.795333,217.333588 
	C-8.714887,118.407463 58.105385,24.375250 157.406219,8.202295 
	C253.916031,-7.516092 346.595367,58.290646 363.140442,154.283401 
	C377.949341,240.203018 331.682007,322.287537 250.170105,354.179138 
M327.240356,188.113510 
	C326.861786,189.385880 326.483215,190.658249 326.039917,192.619644 
	C327.444672,192.494095 328.849396,192.368546 330.254150,192.242996 
	C329.964508,190.429108 329.674866,188.615204 329.385193,186.801315 
	C328.928406,187.248459 328.471649,187.695602 327.240356,188.113510 
M253.614182,132.866135 
	C252.907028,129.652328 252.199875,126.438530 251.420502,122.896507 
	C247.303909,123.769089 243.491089,124.577278 239.444534,125.435005 
	C241.515503,135.771851 243.493622,145.645218 245.549820,155.908340 
	C236.562744,157.740662 228.058487,159.474548 219.445892,161.230515 
	C217.221649,150.655060 215.154587,140.827026 213.040939,130.777374 
	C208.706406,131.712448 205.020279,132.507645 201.031784,133.368073 
	C203.101288,143.549301 205.110504,153.433914 207.137344,163.405289 
	C205.642273,164.014114 204.323776,164.551025 202.500626,165.293427 
	C204.930344,168.948914 201.110718,176.027145 209.556183,175.283356 
	C210.903778,181.586151 212.209427,187.692780 213.572311,194.067123 
	C217.669876,193.193192 221.351959,192.407883 225.462219,191.531250 
	C224.216446,184.961060 223.027771,178.692062 221.790146,172.164841 
	C230.673874,170.330200 239.071747,168.595886 247.772186,166.799103 
	C249.211395,173.409439 250.570908,179.653671 251.989090,186.167419 
	C256.288086,185.225967 260.075378,184.396576 263.964569,183.544861 
	C260.507874,166.563324 257.161865,150.125732 253.614182,132.866135 
M172.138199,140.003754 
	C167.676651,140.358658 163.093155,140.179977 158.775955,141.166565 
	C144.763321,144.368851 135.257751,156.034622 134.744858,170.003647 
	C134.176758,185.476761 142.465134,198.510544 156.112289,202.459518 
	C170.530151,206.631516 183.363586,202.629059 194.751709,193.379822 
	C195.727844,192.587036 196.705109,190.812653 196.503326,189.709900 
	C195.047638,181.754730 193.287949,173.855179 191.551834,165.591568 
	C182.846939,167.399902 174.618546,169.109238 166.114197,170.875916 
	C166.902832,174.447815 167.567459,177.457993 168.267960,180.630661 
	C173.197037,179.682327 177.726364,178.810913 182.218918,177.946579 
	C185.230408,187.803604 184.510223,189.191544 175.126144,192.076248 
	C174.489822,192.271835 173.861938,192.502640 173.215881,192.657654 
	C160.668060,195.668091 150.682190,189.318924 147.916901,176.580551 
	C145.150314,163.836166 151.288467,153.202698 163.290680,151.472321 
	C168.258316,150.756134 173.542007,152.232254 179.762451,152.812057 
	C180.842957,151.099106 182.754730,148.068314 185.206268,144.181808 
	C180.734879,142.673676 176.880737,141.373734 172.138199,140.003754 
M85.614220,157.068130 
	C73.135979,159.675400 60.657734,162.282684 47.980907,164.931442 
	C50.625835,177.941391 53.162506,190.418808 55.731602,203.055740 
	C53.492393,203.772263 51.677780,204.352905 49.535667,205.038361 
	C50.217319,208.474503 50.841309,211.619980 51.454224,214.709641 
	C53.983383,214.418594 55.883289,214.199966 57.872700,213.971024 
	C58.825123,217.991058 59.686855,221.628281 60.631832,225.616882 
	C74.719353,222.706482 88.333565,219.893875 102.341537,216.999924 
	C101.554924,213.297623 100.880981,210.125656 100.111839,206.505569 
	C90.014320,208.512405 80.331017,210.436920 70.391373,212.412369 
	C69.652382,208.603256 69.034164,205.416656 68.338409,201.830383 
	C76.619553,200.043839 84.471916,198.349792 92.539078,196.609406 
	C91.805801,192.982544 91.192139,189.947311 90.505653,186.551834 
	C82.143135,188.195175 74.241356,189.747971 66.054993,191.356689 
	C64.776535,184.990799 63.614521,179.204712 62.388184,173.098373 
	C72.184372,170.989029 81.505226,168.982040 90.836571,166.972794 
	C90.222984,164.106003 90.007011,161.899353 89.228149,159.913483 
	C88.771400,158.748917 87.418236,157.935913 85.614220,157.068130 
M290.541473,172.910217 
	C290.906494,174.485886 291.271484,176.061554 291.698944,177.906708 
	C295.705597,177.066574 299.391174,176.293762 303.627625,175.405457 
	C300.216949,158.577545 296.869690,142.062637 293.487732,125.376511 
	C299.743103,124.014587 305.376617,122.788055 311.416321,121.473083 
	C310.631714,117.789734 309.925903,114.476456 309.171722,110.935997 
	C292.747559,114.352074 276.897217,117.648796 260.907074,120.974602 
	C261.805237,124.896042 262.532227,128.070068 263.300507,131.424301 
	C269.488403,130.206726 275.156006,129.091522 281.262421,127.889969 
	C284.321167,142.862473 287.309662,157.491196 290.541473,172.910217 
M227.026184,247.841263 
	C236.758484,243.736862 241.894226,236.726654 241.594833,227.955276 
	C241.291840,219.078232 235.957260,211.689056 227.904419,208.992020 
	C219.233612,206.088013 209.080551,209.070251 203.635239,216.120529 
	C198.481995,222.792709 198.097885,232.186157 202.679337,239.497406 
	C207.490646,247.175461 216.179916,250.318314 227.026184,247.841263 
M79.856903,237.126785 
	C70.088127,242.690750 66.090782,251.096069 68.641525,260.709656 
	C71.159477,270.199677 78.934685,276.095490 88.818497,276.009491 
	C98.725121,275.923340 107.158020,269.627411 109.403732,260.305176 
	C111.267311,252.569229 109.282555,245.629929 103.395157,240.330887 
	C96.704124,234.308456 88.865929,233.567810 79.856903,237.126785 
M119.765976,166.695282 
	C118.649117,161.528854 117.532257,156.362411 116.330353,150.802551 
	C112.198212,151.663269 108.362389,152.462265 104.158287,153.337967 
	C108.360863,173.734940 112.492310,193.786682 116.676704,214.095428 
	C121.099266,213.138748 124.899261,212.316742 128.868256,211.458176 
	C125.814751,196.473450 122.866020,182.002853 119.765976,166.695282 
M326.604340,222.986877 
	C322.039642,218.851456 317.608429,214.553619 312.855164,210.647644 
	C310.397949,208.628418 310.392029,206.985153 311.774017,204.374420 
	C314.521606,199.183960 316.911774,193.804291 319.587250,188.215363 
	C311.525238,188.677948 311.522156,188.676483 308.502319,195.012863 
	C305.901184,200.470657 303.308105,205.932266 300.596558,211.633774 
	C299.246613,204.949310 298.009521,198.823608 296.715240,192.414703 
	C293.849762,193.055450 291.494507,193.582123 288.947052,194.151764 
	C291.658600,207.234604 294.276550,219.865814 296.959869,232.812363 
	C299.805847,232.152710 302.120148,231.616287 304.455719,231.074936 
	C304.067627,225.394135 300.572052,219.883789 306.204956,215.094620 
	C309.393127,217.945694 312.970093,220.489639 315.702698,223.742859 
	C319.722626,228.528641 324.064148,228.003418 329.218323,225.712189 
	C328.438751,224.879044 327.786987,224.182465 326.604340,222.986877 
M126.283913,236.077942 
	C125.965401,237.197266 125.571068,238.301178 125.340187,239.438278 
	C123.221992,249.870728 129.425797,260.724915 139.124817,263.602600 
	C149.558640,266.698303 160.948471,261.374512 164.626389,251.423279 
	C162.539597,250.592636 160.444092,249.758530 158.423248,248.954147 
	C151.608826,257.386505 144.488358,259.422546 138.452621,254.829346 
	C132.983322,250.667175 131.371704,241.674026 135.059204,235.893158 
	C138.866898,229.923859 146.221100,229.031845 154.133728,233.788071 
	C155.656662,232.184875 157.229950,230.528671 158.798889,228.877045 
	C148.992355,219.176987 133.380035,222.469833 126.283913,236.077942 
M279.977478,235.642197 
	C282.590607,232.833313 285.203766,230.024445 288.348480,226.644165 
	C284.930847,225.282944 282.827332,224.445145 280.833221,223.650909 
	C274.615479,231.811829 268.129791,233.987823 261.989838,230.228928 
	C256.218292,226.695587 253.838150,217.798203 257.011139,211.617615 
	C260.419495,204.978439 266.820831,203.854996 276.960449,208.240250 
	C278.373596,206.750793 279.836517,205.208878 281.438995,203.519867 
	C275.668518,197.620041 269.008331,196.931595 261.884766,199.078308 
	C254.470673,201.312607 249.428436,206.156693 248.004303,213.940292 
	C246.487473,222.230682 248.569138,229.646957 255.357178,234.965546 
	C262.942017,240.908417 271.138031,240.018463 279.977478,235.642197 
M192.539932,247.163086 
	C188.713379,247.929337 184.886826,248.695602 180.832108,249.507553 
	C178.552673,238.583344 176.421692,228.370667 174.203918,217.742020 
	C171.475510,218.300385 169.130249,218.780334 166.457123,219.327393 
	C169.173126,232.520432 171.777634,245.171890 174.443405,258.120941 
	C183.125641,256.298218 191.364548,254.568573 199.715652,252.815369 
	C199.182785,250.281845 198.757294,248.258926 198.309509,246.129929 
	C196.265594,246.504532 194.808899,246.771515 192.539932,247.163086 
M117.331520,239.500885 
	C117.220345,235.754654 117.109161,232.008438 116.972244,227.395050 
	C108.336464,233.384262 106.810966,239.886932 111.965843,246.825378 
	C113.756256,244.517303 115.411575,242.383362 117.331520,239.500885 
M324.990845,191.551147 
	C324.803497,191.192078 324.616119,190.833008 324.428772,190.473938 
	C324.452637,190.982101 324.476501,191.490280 324.990845,191.551147 
z"/>
<path fill="#000000" opacity="0" stroke="none" 
	d="
M253.715027,133.277130 
	C257.161865,150.125732 260.507874,166.563324 263.964569,183.544861 
	C260.075378,184.396576 256.288086,185.225967 251.989090,186.167419 
	C250.570908,179.653671 249.211395,173.409439 247.772186,166.799103 
	C239.071747,168.595886 230.673874,170.330200 221.790146,172.164841 
	C223.027771,178.692062 224.216446,184.961060 225.462219,191.531250 
	C221.351959,192.407883 217.669876,193.193192 213.572311,194.067123 
	C212.209427,187.692780 210.903778,181.586151 209.556183,175.283356 
	C201.110718,176.027145 204.930344,168.948914 202.500626,165.293427 
	C204.323776,164.551025 205.642273,164.014114 207.137344,163.405289 
	C205.110504,153.433914 203.101288,143.549301 201.031784,133.368073 
	C205.020279,132.507645 208.706406,131.712448 213.040939,130.777374 
	C215.154587,140.827026 217.221649,150.655060 219.445892,161.230515 
	C228.058487,159.474548 236.562744,157.740662 245.549820,155.908340 
	C243.493622,145.645218 241.515503,135.771851 239.444534,125.435005 
	C243.491089,124.577278 247.303909,123.769089 251.420502,122.896507 
	C252.199875,126.438530 252.907028,129.652328 253.715027,133.277130 
z"/>
<path fill="#000000" opacity="0" stroke="none" 
	d="
M172.582397,140.038757 
	C176.880737,141.373734 180.734879,142.673676 185.206268,144.181808 
	C182.754730,148.068314 180.842957,151.099106 179.762451,152.812057 
	C173.542007,152.232254 168.258316,150.756134 163.290680,151.472321 
	C151.288467,153.202698 145.150314,163.836166 147.916901,176.580551 
	C150.682190,189.318924 160.668060,195.668091 173.215881,192.657654 
	C173.861938,192.502640 174.489822,192.271835 175.126144,192.076248 
	C184.510223,189.191544 185.230408,187.803604 182.218918,177.946579 
	C177.726364,178.810913 173.197037,179.682327 168.267960,180.630661 
	C167.567459,177.457993 166.902832,174.447815 166.114197,170.875916 
	C174.618546,169.109238 182.846939,167.399902 191.551834,165.591568 
	C193.287949,173.855179 195.047638,181.754730 196.503326,189.709900 
	C196.705109,190.812653 195.727844,192.587036 194.751709,193.379822 
	C183.363586,202.629059 170.530151,206.631516 156.112289,202.459518 
	C142.465134,198.510544 134.176758,185.476761 134.744858,170.003647 
	C135.257751,156.034622 144.763321,144.368851 158.775955,141.166565 
	C163.093155,140.179977 167.676651,140.358658 172.582397,140.038757 
z"/>
<path fill="#000000" opacity="0" stroke="none" 
	d="
M86.041260,157.016449 
	C87.418236,157.935913 88.771400,158.748917 89.228149,159.913483 
	C90.007011,161.899353 90.222984,164.106003 90.836571,166.972794 
	C81.505226,168.982040 72.184372,170.989029 62.388184,173.098373 
	C63.614521,179.204712 64.776535,184.990799 66.054993,191.356689 
	C74.241356,189.747971 82.143135,188.195175 90.505653,186.551834 
	C91.192139,189.947311 91.805801,192.982544 92.539078,196.609406 
	C84.471916,198.349792 76.619553,200.043839 68.338409,201.830383 
	C69.034164,205.416656 69.652382,208.603256 70.391373,212.412369 
	C80.331017,210.436920 90.014320,208.512405 100.111839,206.505569 
	C100.880981,210.125656 101.554924,213.297623 102.341537,216.999924 
	C88.333565,219.893875 74.719353,222.706482 60.631832,225.616882 
	C59.686855,221.628281 58.825123,217.991058 57.872700,213.971024 
	C55.883289,214.199966 53.983383,214.418594 51.454224,214.709641 
	C50.841309,211.619980 50.217319,208.474503 49.535667,205.038361 
	C51.677780,204.352905 53.492393,203.772263 55.731602,203.055740 
	C53.162506,190.418808 50.625835,177.941391 47.980907,164.931442 
	C60.657734,162.282684 73.135979,159.675400 86.041260,157.016449 
z"/>
<path fill="#000000" opacity="0" stroke="none" 
	d="
M290.419830,172.515060 
	C287.309662,157.491196 284.321167,142.862473 281.262421,127.889969 
	C275.156006,129.091522 269.488403,130.206726 263.300507,131.424301 
	C262.532227,128.070068 261.805237,124.896042 260.907074,120.974602 
	C276.897217,117.648796 292.747559,114.352074 309.171722,110.935997 
	C309.925903,114.476456 310.631714,117.789734 311.416321,121.473083 
	C305.376617,122.788055 299.743103,124.014587 293.487732,125.376511 
	C296.869690,142.062637 300.216949,158.577545 303.627625,175.405457 
	C299.391174,176.293762 295.705597,177.066574 291.698944,177.906708 
	C291.271484,176.061554 290.906494,174.485886 290.419830,172.515060 
z"/>
<path fill="#000000" opacity="0" stroke="none" 
	d="
M226.631653,247.929688 
	C216.179916,250.318314 207.490646,247.175461 202.679337,239.497406 
	C198.097885,232.186157 198.481995,222.792709 203.635239,216.120529 
	C209.080551,209.070251 219.233612,206.088013 227.904419,208.992020 
	C235.957260,211.689056 241.291840,219.078232 241.594833,227.955276 
	C241.894226,236.726654 236.758484,243.736862 226.631653,247.929688 
M225.233505,215.871719 
	C218.563950,214.015625 213.060196,215.679672 209.778564,220.544510 
	C206.602295,225.253143 207.091293,232.736984 210.875259,237.328690 
	C214.456375,241.674255 220.327988,243.065826 225.823853,240.640900 
	C230.057358,238.772995 232.789520,235.580551 233.222412,230.799576 
	C233.797211,224.451447 231.750809,219.358734 225.233505,215.871719 
z"/>
<path fill="#000000" opacity="0" stroke="none" 
	d="
M80.220909,236.999939 
	C88.865929,233.567810 96.704124,234.308456 103.395157,240.330887 
	C109.282555,245.629929 111.267311,252.569229 109.403732,260.305176 
	C107.158020,269.627411 98.725121,275.923340 88.818497,276.009491 
	C78.934685,276.095490 71.159477,270.199677 68.641525,260.709656 
	C66.090782,251.096069 70.088127,242.690750 80.220909,236.999939 
M77.304291,249.145340 
	C74.626495,257.283295 77.261818,264.983887 83.709633,267.862152 
	C89.811111,270.585815 97.418343,268.024994 100.450279,262.226746 
	C103.624313,256.156769 101.507980,247.803436 95.859100,244.105042 
	C89.855507,240.174438 82.535332,241.948318 77.304291,249.145340 
z"/>
<path fill="#000000" opacity="0" stroke="none" 
	d="
M119.841629,167.113770 
	C122.866020,182.002853 125.814751,196.473450 128.868256,211.458176 
	C124.899261,212.316742 121.099266,213.138748 116.676704,214.095428 
	C112.492310,193.786682 108.360863,173.734940 104.158287,153.337967 
	C108.362389,152.462265 112.198212,151.663269 116.330353,150.802551 
	C117.532257,156.362411 118.649117,161.528854 119.841629,167.113770 
z"/>
<path fill="#000000" opacity="0" stroke="none" 
	d="
M326.869781,223.236389 
	C327.786987,224.182465 328.438751,224.879044 329.218323,225.712189 
	C324.064148,228.003418 319.722626,228.528641 315.702698,223.742859 
	C312.970093,220.489639 309.393127,217.945694 306.204956,215.094620 
	C300.572052,219.883789 304.067627,225.394135 304.455719,231.074936 
	C302.120148,231.616287 299.805847,232.152710 296.959869,232.812363 
	C294.276550,219.865814 291.658600,207.234604 288.947052,194.151764 
	C291.494507,193.582123 293.849762,193.055450 296.715240,192.414703 
	C298.009521,198.823608 299.246613,204.949310 300.596558,211.633774 
	C303.308105,205.932266 305.901184,200.470657 308.502319,195.012863 
	C311.522156,188.676483 311.525238,188.677948 319.587250,188.215363 
	C316.911774,193.804291 314.521606,199.183960 311.774017,204.374420 
	C310.392029,206.985153 310.397949,208.628418 312.855164,210.647644 
	C317.608429,214.553619 322.039642,218.851456 326.869781,223.236389 
z"/>
<path fill="#000000" opacity="0" stroke="none" 
	d="
M126.465996,235.732056 
	C133.380035,222.469833 148.992355,219.176987 158.798889,228.877045 
	C157.229950,230.528671 155.656662,232.184875 154.133728,233.788071 
	C146.221100,229.031845 138.866898,229.923859 135.059204,235.893158 
	C131.371704,241.674026 132.983322,250.667175 138.452621,254.829346 
	C144.488358,259.422546 151.608826,257.386505 158.423248,248.954147 
	C160.444092,249.758530 162.539597,250.592636 164.626389,251.423279 
	C160.948471,261.374512 149.558640,266.698303 139.124817,263.602600 
	C129.425797,260.724915 123.221992,249.870728 125.340187,239.438278 
	C125.571068,238.301178 125.965401,237.197266 126.465996,235.732056 
z"/>
<path fill="#000000" opacity="0" stroke="none" 
	d="
M279.647552,235.824158 
	C271.138031,240.018463 262.942017,240.908417 255.357178,234.965546 
	C248.569138,229.646957 246.487473,222.230682 248.004303,213.940292 
	C249.428436,206.156693 254.470673,201.312607 261.884766,199.078308 
	C269.008331,196.931595 275.668518,197.620041 281.438995,203.519867 
	C279.836517,205.208878 278.373596,206.750793 276.960449,208.240250 
	C266.820831,203.854996 260.419495,204.978439 257.011139,211.617615 
	C253.838150,217.798203 256.218292,226.695587 261.989838,230.228928 
	C268.129791,233.987823 274.615479,231.811829 280.833221,223.650909 
	C282.827332,224.445145 284.930847,225.282944 288.348480,226.644165 
	C285.203766,230.024445 282.590607,232.833313 279.647552,235.824158 
z"/>
<path fill="#000000" opacity="0" stroke="none" 
	d="
M192.946075,247.100784 
	C194.808899,246.771515 196.265594,246.504532 198.309509,246.129929 
	C198.757294,248.258926 199.182785,250.281845 199.715652,252.815369 
	C191.364548,254.568573 183.125641,256.298218 174.443405,258.120941 
	C171.777634,245.171890 169.173126,232.520432 166.457123,219.327393 
	C169.130249,218.780334 171.475510,218.300385 174.203918,217.742020 
	C176.421692,228.370667 178.552673,238.583344 180.832108,249.507553 
	C184.886826,248.695602 188.713379,247.929337 192.946075,247.100784 
z"/>
<path fill="#000000" opacity="0" stroke="none" 
	d="
M117.199203,239.875153 
	C115.411575,242.383362 113.756256,244.517303 111.965843,246.825378 
	C106.810966,239.886932 108.336464,233.384262 116.972244,227.395050 
	C117.109161,232.008438 117.220345,235.754654 117.199203,239.875153 
z"/>
<path fill="#FFFFFF" opacity="1.000000" stroke="none" 
	d="
M328.014862,188.142746 
	C328.471649,187.695602 328.928406,187.248459 329.385193,186.801315 
	C329.674866,188.615204 329.964508,190.429108 330.254150,192.242996 
	C328.849396,192.368546 327.444672,192.494095 326.344055,192.104797 
	C327.103729,190.440872 327.559296,189.291809 328.014862,188.142746 
z"/>
<path fill="#000000" opacity="0" stroke="none" 
	d="
M327.627625,188.128128 
	C327.559296,189.291809 327.103729,190.440872 326.376404,191.760284 
	C326.483215,190.658249 326.861786,189.385880 327.627625,188.128128 
z"/>
<path fill="#000000" opacity="0" stroke="none" 
	d="
M324.745605,191.774796 
	C324.476501,191.490280 324.452637,190.982101 324.428772,190.473938 
	C324.616119,190.833008 324.803497,191.192078 324.745605,191.774796 
z"/>
<path fill="#FFFFFF" opacity="1.000000" stroke="none" 
	d="
M225.607330,215.996948 
	C231.750809,219.358734 233.797211,224.451447 233.222412,230.799576 
	C232.789520,235.580551 230.057358,238.772995 225.823853,240.640900 
	C220.327988,243.065826 214.456375,241.674255 210.875259,237.328690 
	C207.091293,232.736984 206.602295,225.253143 209.778564,220.544510 
	C213.060196,215.679672 218.563950,214.015625 225.607330,215.996948 
z"/>
<path fill="#FFFFFF" opacity="1.000000" stroke="none" 
	d="
M77.516685,248.821899 
	C82.535332,241.948318 89.855507,240.174438 95.859100,244.105042 
	C101.507980,247.803436 103.624313,256.156769 100.450279,262.226746 
	C97.418343,268.024994 89.811111,270.585815 83.709633,267.862152 
	C77.261818,264.983887 74.626495,257.283295 77.516685,248.821899 
z"/>
</svg>